HIERARCHY
ROOT mixamorig:Hips
{
	OFFSET 0.000000 77.714516 0.000000
	CHANNELS 6 Xposition Yposition Zposition Xrotation Yrotation Zrotation
	JOINT mixamorig:Spine
	{
		OFFSET 0.000000 14.685699 -1.734700
		CHANNELS 3 Xrotation Yrotation Zrotation
		JOINT mixamorig:Spine1
		{
			OFFSET 0.000000 17.133286 -2.023825
			CHANNELS 3 Xrotation Yrotation Zrotation
			JOINT mixamorig:Spine2
			{
				OFFSET 0.000000 19.580956 -2.312950
				CHANNELS 3 Xrotation Yrotation Zrotation
				JOINT mixamorig:Neck
				{
					OFFSET 0.000000 22.028564 -2.602067
					CHANNELS 3 Xrotation Yrotation Zrotation
					JOINT mixamorig:Head
					{
						OFFSET 0.000000 7.772293 1.167700
						CHANNELS 3 Xrotation Yrotation Zrotation
						JOINT mixamorig:HeadTop_End
						{
							OFFSET 0.000000 26.518204 3.983900
							CHANNELS 3 Xrotation Yrotation Zrotation
							End Site
							{
								OFFSET 0.000000 26.815781 0.000000
							}
						}
					}
				}
				JOINT mixamorig:LeftShoulder
				{
					OFFSET 11.646600 18.513336 -2.583780
					CHANNELS 3 Xrotation Yrotation Zrotation
					JOINT mixamorig:LeftArm
					{
						OFFSET 23.544209 -6.614426 0.036475
						CHANNELS 3 Xrotation Yrotation Zrotation
						JOINT mixamorig:LeftForeArm
						{
							OFFSET 22.756695 0.000000 -0.000001
							CHANNELS 3 Xrotation Yrotation Zrotation
							JOINT mixamorig:LeftHand
							{
								OFFSET 32.238304 0.000000 -0.000001
								CHANNELS 3 Xrotation Yrotation Zrotation
								JOINT mixamorig:LeftHandThumb1
								{
									OFFSET 4.391930 -2.771759 4.066533
									CHANNELS 3 Xrotation Yrotation Zrotation
									JOINT mixamorig:LeftHandThumb2
									{
										OFFSET 4.087418 -2.359879 2.359871
										CHANNELS 3 Xrotation Yrotation Zrotation
										JOINT mixamorig:LeftHandThumb3
										{
											OFFSET 4.044945 -2.335342 2.335349
											CHANNELS 3 Xrotation Yrotation Zrotation
											JOINT mixamorig:LeftHandThumb4
											{
												OFFSET 3.242561 -1.872101 1.872095
												CHANNELS 3 Xrotation Yrotation Zrotation
												End Site
												{
													OFFSET 2.876892 -1.863678 2.402885
												}
											}
										}
									}
								}
								JOINT mixamorig:LeftHandIndex1
								{
									OFFSET 13.080666 -0.495590 3.860911
									CHANNELS 3 Xrotation Yrotation Zrotation
									JOINT mixamorig:LeftHandIndex2
									{
										OFFSET 4.467804 0.000000 0.000000
										CHANNELS 3 Xrotation Yrotation Zrotation
										JOINT mixamorig:LeftHandIndex3
										{
											OFFSET 4.434097 0.000000 0.000000
											CHANNELS 3 Xrotation Yrotation Zrotation
											JOINT mixamorig:LeftHandIndex4
											{
												OFFSET 3.589699 0.000000 0.000000
												CHANNELS 3 Xrotation Yrotation Zrotation
												End Site
												{
													OFFSET 3.589706 0.000000 0.000200
												}
											}
										}
									}
								}
								JOINT mixamorig:LeftHandMiddle1
								{
									OFFSET 12.178093 0.000000 0.000000
									CHANNELS 3 Xrotation Yrotation Zrotation
									JOINT mixamorig:LeftHandMiddle2
									{
										OFFSET 5.491508 0.000000 0.000000
										CHANNELS 3 Xrotation Yrotation Zrotation
										JOINT mixamorig:LeftHandMiddle3
										{
											OFFSET 5.202805 0.000000 0.000000
											CHANNELS 3 Xrotation Yrotation Zrotation
											JOINT mixamorig:LeftHandMiddle4
											{
												OFFSET 4.456505 0.000000 0.000000
												CHANNELS 3 Xrotation Yrotation Zrotation
												End Site
												{
													OFFSET 4.456505 -0.000046 0.006499
												}
											}
										}
									}
								}
								JOINT mixamorig:LeftHandRing1
								{
									OFFSET 11.850945 -0.053970 -3.835439
									CHANNELS 3 Xrotation Yrotation Zrotation
									JOINT mixamorig:LeftHandRing2
									{
										OFFSET 4.691414 0.000000 0.000000
										CHANNELS 3 Xrotation Yrotation Zrotation
										JOINT mixamorig:LeftHandRing3
										{
											OFFSET 4.518303 0.000000 0.000000
											CHANNELS 3 Xrotation Yrotation Zrotation
											JOINT mixamorig:LeftHandRing4
											{
												OFFSET 3.568130 0.000000 0.000000
												CHANNELS 3 Xrotation Yrotation Zrotation
												End Site
												{
													OFFSET 3.568100 -0.000168 0.014599
												}
											}
										}
									}
								}
								JOINT mixamorig:LeftHandPinky1
								{
									OFFSET 10.491814 -0.458572 -7.033705
									CHANNELS 3 Xrotation Yrotation Zrotation
									JOINT mixamorig:LeftHandPinky2
									{
										OFFSET 4.452301 0.000000 0.000000
										CHANNELS 3 Xrotation Yrotation Zrotation
										JOINT mixamorig:LeftHandPinky3
										{
											OFFSET 3.536598 0.000000 0.000000
											CHANNELS 3 Xrotation Yrotation Zrotation
											JOINT mixamorig:LeftHandPinky4
											{
												OFFSET 2.823502 0.000000 0.000000
												CHANNELS 3 Xrotation Yrotation Zrotation
												End Site
												{
													OFFSET 2.823502 0.000000 0.000600
												}
											}
										}
									}
								}
							}
						}
					}
				}
				JOINT mixamorig:RightShoulder
				{
					OFFSET -11.646600 18.513351 -2.620334
					CHANNELS 3 Xrotation Yrotation Zrotation
					JOINT mixamorig:RightArm
					{
						OFFSET -23.544205 -6.614441 -0.036501
						CHANNELS 3 Xrotation Yrotation Zrotation
						JOINT mixamorig:RightForeArm
						{
							OFFSET -22.759399 0.000000 0.000001
							CHANNELS 3 Xrotation Yrotation Zrotation
							JOINT mixamorig:RightHand
							{
								OFFSET -32.238106 0.000000 0.000001
								CHANNELS 3 Xrotation Yrotation Zrotation
								JOINT mixamorig:RightHandThumb1
								{
									OFFSET -4.492897 -2.767944 4.026622
									CHANNELS 3 Xrotation Yrotation Zrotation
									JOINT mixamorig:RightHandThumb2
									{
										OFFSET -4.113335 -2.374832 2.374833
										CHANNELS 3 Xrotation Yrotation Zrotation
										JOINT mixamorig:RightHandThumb3
										{
											OFFSET -4.066299 -2.347672 2.347678
											CHANNELS 3 Xrotation Yrotation Zrotation
											JOINT mixamorig:RightHandThumb4
											{
												OFFSET -3.138756 -1.812164 1.812160
												CHANNELS 3 Xrotation Yrotation Zrotation
												End Site
												{
													OFFSET -2.613274 -1.789185 2.527684
												}
											}
										}
									}
								}
								JOINT mixamorig:RightHandIndex1
								{
									OFFSET -12.930191 -0.141510 3.700550
									CHANNELS 3 Xrotation Yrotation Zrotation
									JOINT mixamorig:RightHandIndex2
									{
										OFFSET -4.764015 0.000000 0.000000
										CHANNELS 3 Xrotation Yrotation Zrotation
										JOINT mixamorig:RightHandIndex3
										{
											OFFSET -4.419807 0.000000 0.000000
											CHANNELS 3 Xrotation Yrotation Zrotation
											JOINT mixamorig:RightHandIndex4
											{
												OFFSET -3.701851 0.000000 0.000000
												CHANNELS 3 Xrotation Yrotation Zrotation
												End Site
												{
													OFFSET -3.701797 0.000153 -0.018699
												}
											}
										}
									}
								}
								JOINT mixamorig:RightHandMiddle1
								{
									OFFSET -12.168388 0.000000 0.000001
									CHANNELS 3 Xrotation Yrotation Zrotation
									JOINT mixamorig:RightHandMiddle2
									{
										OFFSET -5.385834 0.000000 0.000000
										CHANNELS 3 Xrotation Yrotation Zrotation
										JOINT mixamorig:RightHandMiddle3
										{
											OFFSET -5.321609 0.000000 0.000000
											CHANNELS 3 Xrotation Yrotation Zrotation
											JOINT mixamorig:RightHandMiddle4
											{
												OFFSET -4.501015 0.000000 0.000000
												CHANNELS 3 Xrotation Yrotation Zrotation
												End Site
												{
													OFFSET -4.500992 -0.000168 0.011299
												}
											}
										}
									}
								}
								JOINT mixamorig:RightHandRing1
								{
									OFFSET -11.815239 0.302551 -3.905540
									CHANNELS 3 Xrotation Yrotation Zrotation
									JOINT mixamorig:RightHandRing2
									{
										OFFSET -4.583313 0.000000 0.000000
										CHANNELS 3 Xrotation Yrotation Zrotation
										JOINT mixamorig:RightHandRing3
										{
											OFFSET -4.612907 0.000000 0.000000
											CHANNELS 3 Xrotation Yrotation Zrotation
											JOINT mixamorig:RightHandRing4
											{
												OFFSET -3.358940 0.000000 0.000000
												CHANNELS 3 Xrotation Yrotation Zrotation
												End Site
												{
													OFFSET -3.358910 -0.000198 0.016799
												}
											}
										}
									}
								}
								JOINT mixamorig:RightHandPinky1
								{
									OFFSET -10.511444 -0.263382 -6.996516
									CHANNELS 3 Xrotation Yrotation Zrotation
									JOINT mixamorig:RightHandPinky2
									{
										OFFSET -4.477509 0.000000 0.000000
										CHANNELS 3 Xrotation Yrotation Zrotation
										JOINT mixamorig:RightHandPinky3
										{
											OFFSET -3.497902 0.000000 0.000000
											CHANNELS 3 Xrotation Yrotation Zrotation
											JOINT mixamorig:RightHandPinky4
											{
												OFFSET -2.797302 0.000000 0.000000
												CHANNELS 3 Xrotation Yrotation Zrotation
												End Site
												{
													OFFSET -2.797302 -0.000031 0.002200
												}
											}
										}
									}
								}
							}
						}
					}
				}
			}
		}
	}
	JOINT mixamorig:LeftUpLeg
	{
		OFFSET 13.580900 -8.149200 -1.796100
		CHANNELS 3 Xrotation Yrotation Zrotation
		JOINT mixamorig:LeftLeg
		{
			OFFSET 1.779603 -35.946629 -2.676069
			CHANNELS 3 Xrotation Yrotation Zrotation
			JOINT mixamorig:LeftFoot
			{
				OFFSET -1.779600 -26.652353 -2.057156
				CHANNELS 3 Xrotation Yrotation Zrotation
				JOINT mixamorig:LeftToeBase
				{
					OFFSET -1.192457 -6.581663 13.403625
					CHANNELS 3 Xrotation Yrotation Zrotation
					JOINT mixamorig:LeftToe_End
					{
						OFFSET -0.351332 -0.163919 5.937958
						CHANNELS 3 Xrotation Yrotation Zrotation
						End Site
						{
							OFFSET -0.351332 -0.163919 5.937958
						}
					}
				}
			}
		}
	}
	JOINT mixamorig:RightUpLeg
	{
		OFFSET -13.580900 -8.149200 -2.255300
		CHANNELS 3 Xrotation Yrotation Zrotation
		JOINT mixamorig:RightLeg
		{
			OFFSET -1.779582 -35.946686 -2.316831
			CHANNELS 3 Xrotation Yrotation Zrotation
			JOINT mixamorig:RightFoot
			{
				OFFSET 1.779588 -26.652205 -2.090130
				CHANNELS 3 Xrotation Yrotation Zrotation
				JOINT mixamorig:RightToeBase
				{
					OFFSET 1.192391 -6.582412 13.372187
					CHANNELS 3 Xrotation Yrotation Zrotation
					JOINT mixamorig:RightToe_End
					{
						OFFSET 0.351304 -0.164246 5.913598
						CHANNELS 3 Xrotation Yrotation Zrotation
						End Site
						{
							OFFSET 0.351304 -0.164246 5.913598
						}
					}
				}
			}
		}
	}
}
MOTION
Frames: 4
Frame Time: 0.016667
0.223823 60.660431 4.963326 17.914063 7.028569 2.400294 24.907572 -1.926890 -0.682845 9.984207 -0.279444 0.369387 9.985419 -0.248854 0.340490 -13.716355 0.013823 0.930261 -37.498722 2.736716 -4.332477 -0.000001 -0.000001 -0.000000 1.478037 2.484396 6.153223 -39.636476 40.459483 -27.578941 -0.000010 -121.968122 0.000016 9.513705 3.436584 21.973385 -1.665937 10.475366 7.161661 4.500566 14.758246 1.259426 0.034250 8.370854 3.195734 0.000001 0.000000 -0.000000 0.045731 0.793868 -6.593248 0.229618 1.766744 -14.808813 0.373414 2.240796 -18.919504 -0.000000 0.000001 -0.000002 0.108348 1.219100 -10.156658 0.367796 2.224359 -18.775391 0.343486 2.151580 -18.138653 0.000000 -0.000001 -0.000003 0.274312 1.927785 -16.195321 0.695122 3.019729 -25.920947 0.673723 2.975348 -25.511574 -0.000001 -0.000000 -0.000000 1.314038 5.750510 -14.980801 0.615471 -1.223849 -24.699841 0.765252 3.159764 -27.222159 -0.000000 -0.000003 0.000007 0.699779 1.664678 -0.958342 -37.611427 -48.785152 23.551155 -0.000006 116.191422 0.000007 -14.214352 -0.905287 -11.008382 -2.014197 -11.528569 -7.837529 5.353905 -16.615583 -0.772907 -0.558988 -7.825507 -2.926920 -0.000000 -0.000002 0.000002 0.139471 -1.388491 11.472145 0.376095 -2.259979 18.894646 0.536315 -2.682397 22.608983 -0.000000 0.000002 -0.000001 0.366107 -2.230590 18.639576 0.755785 -3.157580 26.915347 0.976848 -3.558999 30.687688 -0.000002 0.000001 -0.000002 0.823291 -3.286977 28.116124 0.315455 -2.074458 17.290907 1.678974 -4.535517 40.610611 0.000003 -0.000002 -0.000002 1.093612 -3.748377 32.519781 0.002128 0.172496 0.000031 2.047486 -4.931548 45.074061 0.000001 0.000003 0.000001 -62.070976 -5.886383 17.748860 59.806161 -11.806125 5.274836 -15.819697 3.537162 -23.121223 -0.000318 0.000004 0.000002 -0.000000 0.000000 -0.000000 -67.899341 -0.518879 -34.524205 63.401415 4.298663 -10.493708 -19.831383 14.362220 27.416263 -0.003298 0.000001 -0.000000 0.000000 -0.000000 -0.000001 
0.208571 60.659698 4.983824 17.966034 7.001082 2.405450 24.705011 -1.900559 -0.699618 9.997899 -0.276384 0.351719 9.999172 -0.246523 0.322896 -13.721326 0.004404 1.016489 -37.443473 2.765131 -4.315587 -0.000001 -0.000000 -0.000000 1.321091 2.483086 6.024969 -40.078809 39.881966 -27.232973 -0.000011 -121.655887 0.000024 9.639112 3.386255 21.960508 -1.665934 10.475374 7.161650 4.500568 14.758251 1.259426 0.034251 8.370852 3.195737 -0.000001 0.000003 0.000003 0.046022 0.796335 -6.613691 0.229924 1.767904 -14.819064 0.373613 2.241391 -18.924613 -0.000001 0.000000 0.000001 0.108702 1.221099 -10.173276 0.368240 2.225662 -18.786835 0.343717 2.152297 -18.144961 0.000001 -0.000002 -0.000003 0.274876 1.929727 -16.211966 0.695727 3.020984 -25.932403 0.674051 2.976016 -25.517886 0.000002 0.000001 -0.000002 1.316104 5.752509 -15.001407 0.615542 -1.223680 -24.701183 0.765529 3.160318 -27.227297 -0.000002 0.000001 -0.000002 0.703217 1.639466 -1.191688 -37.966173 -48.123413 23.212335 0.000020 115.923610 -0.000010 -14.061645 -1.072678 -10.305529 -2.014188 -11.528564 -7.837533 5.353904 -16.615584 -0.772907 -0.558987 -7.825507 -2.926919 -0.000002 0.000005 0.000003 0.157324 -1.473685 12.186930 0.390334 -2.301111 19.252401 0.544706 -2.702486 22.787977 0.000002 0.000002 0.000000 0.393448 -2.310008 19.329895 0.777217 -3.199406 27.301970 0.988355 -3.578231 30.872189 -0.000000 0.000001 0.000001 0.863388 -3.360804 28.807665 0.329553 -2.119248 17.676832 1.704292 -4.564793 40.929663 -0.000003 0.000001 -0.000001 1.105350 -3.766665 32.698667 0.001197 0.129887 -0.000074 2.074547 -4.958292 45.388055 0.000001 -0.000000 -0.000001 -62.043820 -5.969184 17.810451 59.750898 -11.809501 5.132134 -15.808866 3.612252 -23.094830 -0.000333 0.000002 0.000003 -0.000000 0.000000 -0.000000 -68.007558 -0.569064 -34.536667 63.430628 4.312667 -10.493833 -19.844469 14.431566 27.368532 -0.001981 -0.000001 -0.000006 0.000000 0.000000 -0.000000 
0.191290 60.658707 5.001873 17.981667 6.954403 2.410244 24.559320 -1.880452 -0.720276 10.014799 -0.274080 0.342066 10.016155 -0.244466 0.313225 -13.718601 -0.000162 1.064428 -37.414762 2.773711 -4.291588 0.000000 0.000000 -0.000000 1.206015 2.481965 5.929739 -40.394572 39.462695 -26.976300 -0.000018 -121.413347 0.000028 9.736494 3.341907 21.924897 -1.665936 10.475362 7.161655 4.500566 14.758249 1.259426 0.034252 8.370856 3.195735 -0.000001 0.000000 0.000001 0.046286 0.798621 -6.632920 0.230224 1.769054 -14.828665 0.373798 2.241931 -18.929442 0.000002 -0.000001 -0.000001 0.109033 1.222956 -10.188895 0.368663 2.226889 -18.797586 0.343946 2.152973 -18.150876 -0.000001 -0.000001 -0.000000 0.275400 1.931523 -16.227595 0.696287 3.022117 -25.943154 0.674357 2.976677 -25.523816 0.000000 0.000001 -0.000005 1.318045 5.754379 -15.020774 0.615605 -1.223536 -24.702453 0.765801 3.160813 -27.232104 -0.000001 -0.000003 0.000000 0.703016 1.622533 -1.343485 -38.348852 -47.702892 22.861517 -0.000004 115.756789 0.000007 -13.983825 -1.244665 -9.571267 -2.014197 -11.528561 -7.837534 5.353903 -16.615578 -0.772905 -0.558988 -7.825504 -2.926918 0.000003 -0.000001 -0.000000 0.174454 -1.550866 12.836002 0.403475 -2.338389 19.577238 0.552407 -2.720658 22.950489 0.000000 0.000000 -0.000000 0.419107 -2.381818 19.956761 0.796939 -3.237261 27.653033 0.998814 -3.595671 31.039706 -0.000002 -0.000001 -0.000000 0.900576 -3.427441 29.435687 0.342661 -2.159855 18.027454 1.717874 -4.580360 41.100199 0.000000 -0.000002 -0.000002 1.116035 -3.783244 32.861130 0.000750 0.102299 -0.000002 2.088922 -4.972359 45.554121 -0.000002 -0.000001 -0.000000 -61.950881 -6.133395 17.902722 59.690205 -11.830825 4.887203 -15.804484 3.739746 -23.033754 -0.000348 -0.000002 -0.000004 -0.000000 0.000001 -0.000000 -68.115988 -0.657183 -34.563626 63.459540 4.326439 -10.494131 -19.856263 14.568841 27.308401 -0.003954 0.000002 0.000001 -0.000000 -0.000000 -0.000000 
0.173713 60.658783 5.018339 17.962942 6.895952 2.422150 24.461103 -1.864978 -0.743801 10.032779 -0.272358 0.338338 10.034222 -0.242613 0.309404 -13.707699 -0.001609 1.084483 -37.405746 2.766637 -4.264625 -0.000000 0.000000 -0.000000 1.120027 2.479344 5.855930 -40.606407 39.152680 -26.788948 -0.000015 -121.224643 0.000023 9.790449 3.296003 21.868594 -1.665950 10.475358 7.161664 4.500567 14.758248 1.259428 0.034252 8.370849 3.195737 -0.000002 0.000002 0.000001 0.046548 0.800866 -6.651715 0.230511 1.770135 -14.838091 0.373986 2.242478 -18.934154 -0.000000 -0.000002 -0.000000 0.109363 1.224773 -10.204175 0.369069 2.228083 -18.808125 0.344156 2.153638 -18.156685 0.000001 -0.000002 -0.000000 0.275913 1.933283 -16.242890 0.696849 3.023292 -25.953694 0.674660 2.977284 -25.529620 -0.000002 0.000000 -0.000004 1.319940 5.756212 -15.039711 0.615663 -1.223409 -24.703681 0.766055 3.161337 -27.236822 -0.000000 0.000000 -0.000001 0.700270 1.611377 -1.438961 -38.749313 -47.457329 22.501759 0.000018 115.670142 -0.000025 -13.983101 -1.405777 -8.888043 -2.014188 -11.528561 -7.837534 5.353902 -16.615584 -0.772908 -0.558986 -7.825504 -2.926916 -0.000000 0.000006 -0.000000 0.190423 -1.619269 13.412956 0.415332 -2.371441 19.865965 0.559278 -2.736854 23.094953 0.000004 -0.000001 0.000000 0.442580 -2.445422 20.513981 0.814648 -3.270773 27.965088 1.008178 -3.611161 31.188635 -0.000003 0.000000 0.000001 0.934231 -3.486295 29.993963 0.354497 -2.195906 18.339123 1.696854 -4.556197 40.836017 0.000001 -0.000003 -0.000001 1.125574 -3.797934 33.005533 0.000944 0.114607 0.000047 2.065738 -4.949619 45.286104 0.000005 -0.000003 -0.000001 -61.803575 -6.339005 18.006288 59.625277 -11.857430 4.586582 -15.807611 3.893243 -22.953952 -0.000351 -0.000001 -0.000003 -0.000000 0.000000 0.000000 -68.221227 -0.773558 -34.613903 63.487715 4.340689 -10.494628 -19.866199 14.762764 27.239501 -0.007045 0.000004 -0.000014 -0.000000 -0.000000 -0.000000 
